<svg width="133" height="126" viewBox="0 0 133 126" fill="none" xmlns="http://www.w3.org/2000/svg">
<path d="M113 0H20C8.9543 0 0 8.9543 0 20V106C0 117.046 8.95431 126 20 126H113C124.046 126 133 117.046 133 106V20C133 8.95431 124.046 0 113 0Z" fill="#005649"/>
<mask id="mask0_48_3348" style="mask-type:luminance" maskUnits="userSpaceOnUse" x="24" y="12" width="92" height="86">
<path d="M24 12H116V97.4035H24V12Z" fill="white"/>
</mask>
<g mask="url(#mask0_48_3348)">
<path fill-rule="evenodd" clip-rule="evenodd" d="M84.6705 88.367C102.623 85.1366 116.359 69.3401 116.359 50.4889C116.359 29.3217 99.0415 12.0078 77.8743 12.0078H24L39.3932 27.401H77.8743C90.5762 27.401 100.962 37.791 100.962 50.4889C100.962 63.1908 90.5762 73.5807 77.8743 73.5807H70.1797V97.0799L85.5729 88.1953C85.2734 88.2552 84.97 88.3111 84.6705 88.367Z" fill="white"/>
</g>
<mask id="mask1_48_3348" style="mask-type:luminance" maskUnits="userSpaceOnUse" x="37" y="41" width="43" height="74">
<path d="M37.9838 41.6914H79.7362V114.221H37.9838V41.6914Z" fill="white"/>
</mask>
<g mask="url(#mask1_48_3348)">
<path fill-rule="evenodd" clip-rule="evenodd" d="M51.9956 88.4589C51.9956 78.2007 51.9956 67.9386 51.9956 57.6764H72.496C76.2543 57.6764 79.3319 54.2145 79.3319 49.9778C79.3319 45.7452 76.2543 42.2832 72.496 42.2832H38.3275C38.3275 57.6764 38.3275 73.0697 38.3275 88.4589V114.346L51.9956 105.457V88.4589Z" fill="#0BB197"/>
</g>
<mask id="mask2_48_3348" style="mask-type:luminance" maskUnits="userSpaceOnUse" x="54" y="61" width="39" height="53">
<path d="M54.8506 114H92.7455V61.6264L54.8506 61.6264L54.8506 114Z" fill="white"/>
</mask>
<g mask="url(#mask2_48_3348)">
<path fill-rule="evenodd" clip-rule="evenodd" d="M67.3728 80.4005C67.3728 87.8398 67.3728 95.2821 67.3728 102.724H89.7339C93.1771 102.724 92.4173 105.235 92.4173 108.307C92.4173 111.377 89.5977 113.888 86.1545 113.888H54.8506C54.8506 102.724 54.8506 91.561 54.8506 80.4005V61.6269H67.3728L67.3728 80.4005Z" fill="#0BB197"/>
</g>
</svg>
