<svg width="78" height="78" viewBox="0 0 78 78" fill="none" xmlns="http://www.w3.org/2000/svg">
<rect width="78" height="78" rx="10" fill="#D9D9D9"/>
<path d="M24.761 42.152H27.897V44H22.367V34.172H24.761V42.152ZM32.5949 44.112C31.8296 44.112 31.1389 43.9487 30.5229 43.622C29.9162 43.2953 29.4356 42.8287 29.0809 42.222C28.7356 41.6153 28.5629 40.906 28.5629 40.094C28.5629 39.2913 28.7402 38.5867 29.0949 37.98C29.4496 37.364 29.9349 36.8927 30.5509 36.566C31.1669 36.2393 31.8576 36.076 32.6229 36.076C33.3882 36.076 34.0789 36.2393 34.6949 36.566C35.3109 36.8927 35.7962 37.364 36.1509 37.98C36.5056 38.5867 36.6829 39.2913 36.6829 40.094C36.6829 40.8967 36.5009 41.606 36.1369 42.222C35.7822 42.8287 35.2922 43.2953 34.6669 43.622C34.0509 43.9487 33.3602 44.112 32.5949 44.112ZM32.5949 42.04C33.0522 42.04 33.4396 41.872 33.7569 41.536C34.0836 41.2 34.2469 40.7193 34.2469 40.094C34.2469 39.4687 34.0882 38.988 33.7709 38.652C33.4629 38.316 33.0802 38.148 32.6229 38.148C32.1562 38.148 31.7689 38.316 31.4609 38.652C31.1529 38.9787 30.9989 39.4593 30.9989 40.094C30.9989 40.7193 31.1482 41.2 31.4469 41.536C31.7549 41.872 32.1376 42.04 32.5949 42.04ZM40.921 36.076C41.4716 36.076 41.9523 36.188 42.363 36.412C42.783 36.636 43.105 36.93 43.329 37.294V36.188H45.723V43.986C45.723 44.7047 45.5783 45.3533 45.289 45.932C45.009 46.52 44.575 46.9867 43.987 47.332C43.4083 47.6773 42.685 47.85 41.817 47.85C40.6596 47.85 39.7216 47.5747 39.003 47.024C38.2843 46.4827 37.8736 45.7453 37.771 44.812H40.137C40.2116 45.1107 40.389 45.344 40.669 45.512C40.949 45.6893 41.2943 45.778 41.705 45.778C42.1996 45.778 42.5916 45.6333 42.881 45.344C43.1796 45.064 43.329 44.6113 43.329 43.986V42.88C43.0956 43.244 42.7736 43.5427 42.363 43.776C41.9523 44 41.4716 44.112 40.921 44.112C40.277 44.112 39.6936 43.9487 39.171 43.622C38.6483 43.286 38.233 42.8147 37.925 42.208C37.6263 41.592 37.477 40.8827 37.477 40.08C37.477 39.2773 37.6263 38.5727 37.925 37.966C38.233 37.3593 38.6483 36.8927 39.171 36.566C39.6936 36.2393 40.277 36.076 40.921 36.076ZM43.329 40.094C43.329 39.4967 43.161 39.0253 42.825 38.68C42.4983 38.3347 42.097 38.162 41.621 38.162C41.145 38.162 40.739 38.3347 40.403 38.68C40.0763 39.016 39.913 39.4827 39.913 40.08C39.913 40.6773 40.0763 41.1533 40.403 41.508C40.739 41.8533 41.145 42.026 41.621 42.026C42.097 42.026 42.4983 41.8533 42.825 41.508C43.161 41.1627 43.329 40.6913 43.329 40.094ZM51.0109 44.112C50.2456 44.112 49.5549 43.9487 48.9389 43.622C48.3322 43.2953 47.8516 42.8287 47.4969 42.222C47.1516 41.6153 46.9789 40.906 46.9789 40.094C46.9789 39.2913 47.1562 38.5867 47.5109 37.98C47.8656 37.364 48.3509 36.8927 48.9669 36.566C49.5829 36.2393 50.2736 36.076 51.0389 36.076C51.8042 36.076 52.4949 36.2393 53.1109 36.566C53.7269 36.8927 54.2122 37.364 54.5669 37.98C54.9216 38.5867 55.0989 39.2913 55.0989 40.094C55.0989 40.8967 54.9169 41.606 54.5529 42.222C54.1982 42.8287 53.7082 43.2953 53.0829 43.622C52.4669 43.9487 51.7762 44.112 51.0109 44.112ZM51.0109 42.04C51.4682 42.04 51.8556 41.872 52.1729 41.536C52.4996 41.2 52.6629 40.7193 52.6629 40.094C52.6629 39.4687 52.5042 38.988 52.1869 38.652C51.8789 38.316 51.4962 38.148 51.0389 38.148C50.5722 38.148 50.1849 38.316 49.8769 38.652C49.5689 38.9787 49.4149 39.4593 49.4149 40.094C49.4149 40.7193 49.5642 41.2 49.8629 41.536C50.1709 41.872 50.5536 42.04 51.0109 42.04Z" fill="#B8B8B8"/>
</svg>
